<svg width="671.2156249999999px" height="248.6px" xmlns="http://www.w3.org/2000/svg" viewBox="-85.60781249999997 -49.3 671.2156249999999 248.6" style="background: rgba(253, 253, 253, 0);" preserveAspectRatio="xMidYMid"><defs><filter id="editing-hole" x="-100%" y="-100%" width="300%" height="300%"><feFlood flood-color="#000000" result="black"></feFlood><feMorphology operator="dilate" radius="2" in="SourceGraphic" result="erode"></feMorphology><feGaussianBlur in="erode" stdDeviation="4" result="blur"></feGaussianBlur><feOffset in="blur" dx="2" dy="2" result="offset"></feOffset><feComposite operator="atop" in="offset" in2="black" result="merge"></feComposite><feComposite operator="in" in="merge" in2="SourceGraphic" result="inner-shadow"></feComposite></filter></defs><g filter="url(#editing-hole)"><g transform="translate(10.024986267089844, 111.31000423431396)"><path d="M35.86-6.77L35.86-6.77L35.86-6.77Q40.91-6.77 44.19-7.58L44.19-7.58L44.19-7.58Q47.47-8.38 50.70-9.90L50.70-9.90L52.82-2.42L52.82-2.42Q49.29-0.71 45.10 0.10L45.10 0.10L45.10 0.10Q40.91 0.91 34.84 0.91L34.84 0.91L34.84 0.91Q28.58 0.91 23.03-1.21L23.03-1.21L23.03-1.21Q17.47-3.33 13.38-7.47L13.38-7.47L13.38-7.47Q9.29-11.62 6.92-17.73L6.92-17.73L6.92-17.73Q4.54-23.84 4.54-31.82L4.54-31.82L4.54-31.82Q4.54-39.59 6.87-45.70L6.87-45.70L6.87-45.70Q9.19-51.81 13.28-56.00L13.28-56.00L13.28-56.00Q17.37-60.20 23.03-62.37L23.03-62.37L23.03-62.37Q28.68-64.54 35.35-64.54L35.35-64.54L35.35-64.54Q41.61-64.54 45.65-63.53L45.65-63.53L45.65-63.53Q49.69-62.52 53.13-60.80L53.13-60.80L50.90-53.53L50.90-53.53Q48.99-54.34 47.32-54.99L47.32-54.99L47.32-54.99Q45.65-55.65 43.99-56.06L43.99-56.06L43.99-56.06Q42.32-56.46 40.55-56.66L40.55-56.66L40.55-56.66Q38.78-56.86 36.56-56.86L36.56-56.86L36.56-56.86Q32.12-56.86 28.13-55.50L28.13-55.50L28.13-55.50Q24.14-54.14 21.16-51.11L21.16-51.11L21.16-51.11Q18.18-48.08 16.41-43.28L16.41-43.28L16.41-43.28Q14.65-38.48 14.65-31.71L14.65-31.71L14.65-31.71Q14.65-24.85 16.36-20.10L16.36-20.10L16.36-20.10Q18.08-15.35 20.96-12.42L20.96-12.42L20.96-12.42Q23.84-9.49 27.67-8.13L27.67-8.13L27.67-8.13Q31.51-6.77 35.86-6.77ZM66.26-36.76L62.82-43.23L62.82-43.23Q65.25-44.44 67.37-45.40L67.37-45.40L67.37-45.40Q69.49-46.36 71.61-46.97L71.61-46.97L71.61-46.97Q73.73-47.57 75.95-47.87L75.95-47.87L75.95-47.87Q78.17-48.18 80.80-48.18L80.80-48.18L80.80-48.18Q84.74-48.18 88.02-47.32L88.02-47.32L88.02-47.32Q91.30-46.46 93.68-44.44L93.68-44.44L93.68-44.44Q96.05-42.42 97.36-39.14L97.36-39.14L97.36-39.14Q98.68-35.86 98.68-30.91L98.68-30.91L98.68 0L91.30 0L90.19-5.25L89.99-5.25L89.99-5.25Q86.86-1.92 83.12-0.51L83.12-0.51L83.12-0.51Q79.39 0.91 74.84 0.91L74.84 0.91L74.84 0.91Q71.41 0.91 68.53-0.05L68.53-0.05L68.53-0.05Q65.65-1.01 63.53-2.78L63.53-2.78L63.53-2.78Q61.41-4.54 60.25-7.07L60.25-7.07L60.25-7.07Q59.09-9.60 59.09-12.73L59.09-12.73L59.09-12.73Q59.09-20.20 64.99-24.09L64.99-24.09L64.99-24.09Q70.90-27.98 80.60-27.98L80.60-27.98L89.69-27.98L89.69-32.02L89.69-32.02Q89.69-37.17 87.06-39.04L87.06-39.04L87.06-39.04Q84.44-40.91 79.99-40.91L79.99-40.91L79.99-40.91Q77.37-40.91 73.98-40.05L73.98-40.05L73.98-40.05Q70.60-39.19 66.26-36.76L66.26-36.76ZM89.79-12.22L89.79-21.92L82.32-21.71L82.32-21.71Q74.74-21.51 71.56-19.04L71.56-19.04L71.56-19.04Q68.38-16.56 68.38-13.03L68.38-13.03L68.38-13.03Q68.38-10.91 69.08-9.44L69.08-9.44L69.08-9.44Q69.79-7.98 70.95-7.17L70.95-7.17L70.95-7.17Q72.11-6.36 73.68-6.01L73.68-6.01L73.68-6.01Q75.25-5.66 76.96-5.66L76.96-5.66L76.96-5.66Q80.30-5.66 83.73-7.22L83.73-7.22L83.73-7.22Q87.16-8.79 89.79-12.22L89.79-12.22ZM120.29 0L111.50 0L111.50-47.47L118.17-47.47L119.69-37.98L119.69-37.98Q121.40-42.52 125.34-45.35L125.34-45.35L125.34-45.35Q129.28-48.18 134.43-48.18L134.43-48.18L134.43-48.18Q137.06-48.18 138.77-47.77L138.77-47.77L138.77-47.77Q140.49-47.37 141.91-46.76L141.91-46.76L140.19-38.99L140.19-38.99Q138.98-39.59 137.51-40.00L137.51-40.00L137.51-40.00Q136.05-40.40 134.03-40.40L134.03-40.40L134.03-40.40Q131.10-40.40 128.62-39.39L128.62-39.39L128.62-39.39Q126.15-38.38 124.28-36.36L124.28-36.36L124.28-36.36Q122.41-34.34 121.35-31.36L121.35-31.36L121.35-31.36Q120.29-28.38 120.29-24.54L120.29-24.54L120.29 0ZM187.25-27.37L187.25-22.73L153.22-22.73L153.22-22.32L153.22-22.32Q153.22-14.44 157.51-10.20L157.51-10.20L157.51-10.20Q161.80-5.96 169.18-5.96L169.18-5.96L169.18-5.96Q173.01-5.96 175.99-6.57L175.99-6.57L175.99-6.57Q178.97-7.17 182.51-8.59L182.51-8.59L184.33-2.02L184.33-2.02Q181.40-0.71 177.41 0.10L177.41 0.10L177.41 0.10Q173.42 0.91 168.87 0.91L168.87 0.91L168.87 0.91Q163.72 0.91 159.23-0.51L159.23-0.51L159.23-0.51Q154.73-1.92 151.30-4.90L151.30-4.90L151.30-4.90Q147.86-7.88 145.89-12.52L145.89-12.52L145.89-12.52Q143.93-17.17 143.93-23.63L143.93-23.63L143.93-23.63Q143.93-29.19 145.59-33.73L145.59-33.73L145.59-33.73Q147.26-38.28 150.29-41.46L150.29-41.46L150.29-41.46Q153.32-44.64 157.61-46.41L157.61-46.41L157.61-46.41Q161.90-48.18 167.26-48.18L167.26-48.18L167.26-48.18Q171.80-48.18 175.49-46.66L175.49-46.66L175.49-46.66Q179.17-45.15 181.80-42.42L181.80-42.42L181.80-42.42Q184.43-39.69 185.84-35.86L185.84-35.86L185.84-35.86Q187.25-32.02 187.25-27.37L187.25-27.37ZM153.42-28.89L178.06-29.09L178.06-29.09Q178.06-31.71 177.41-33.99L177.41-33.99L177.41-33.99Q176.75-36.26 175.39-37.98L175.39-37.98L175.39-37.98Q174.02-39.69 171.90-40.70L171.90-40.70L171.90-40.70Q169.78-41.71 166.75-41.71L166.75-41.71L166.75-41.71Q161.20-41.71 157.71-38.18L157.71-38.18L157.71-38.18Q154.23-34.64 153.42-28.89L153.42-28.89ZM238.16-27.37L238.16-22.73L204.12-22.73L204.12-22.32L204.12-22.32Q204.12-14.44 208.41-10.20L208.41-10.20L208.41-10.20Q212.71-5.96 220.08-5.96L220.08-5.96L220.08-5.96Q223.92-5.96 226.90-6.57L226.90-6.57L226.90-6.57Q229.88-7.17 233.41-8.59L233.41-8.59L235.23-2.02L235.23-2.02Q232.30-0.71 228.31 0.10L228.31 0.10L228.31 0.10Q224.32 0.91 219.78 0.91L219.78 0.91L219.78 0.91Q214.63 0.91 210.13-0.51L210.13-0.51L210.13-0.51Q205.64-1.92 202.20-4.90L202.20-4.90L202.20-4.90Q198.77-7.88 196.80-12.52L196.80-12.52L196.80-12.52Q194.83-17.17 194.83-23.63L194.83-23.63L194.83-23.63Q194.83-29.19 196.50-33.73L196.50-33.73L196.50-33.73Q198.16-38.28 201.19-41.46L201.19-41.46L201.19-41.46Q204.22-44.64 208.51-46.41L208.51-46.41L208.51-46.41Q212.81-48.18 218.16-48.18L218.16-48.18L218.16-48.18Q222.71-48.18 226.39-46.66L226.39-46.66L226.39-46.66Q230.08-45.15 232.70-42.42L232.70-42.42L232.70-42.42Q235.33-39.69 236.74-35.86L236.74-35.86L236.74-35.86Q238.16-32.02 238.16-27.37L238.16-27.37ZM204.32-28.89L228.97-29.09L228.97-29.09Q228.97-31.71 228.31-33.99L228.31-33.99L228.31-33.99Q227.65-36.26 226.29-37.98L226.29-37.98L226.29-37.98Q224.93-39.69 222.81-40.70L222.81-40.70L222.81-40.70Q220.69-41.71 217.66-41.71L217.66-41.71L217.66-41.71Q212.10-41.71 208.62-38.18L208.62-38.18L208.62-38.18Q205.13-34.64 204.32-28.89L204.32-28.89ZM257.25 0L248.46 0L248.46-47.47L255.13-47.47L256.64-37.98L256.64-37.98Q258.36-42.52 262.30-45.35L262.30-45.35L262.30-45.35Q266.24-48.18 271.39-48.18L271.39-48.18L271.39-48.18Q274.01-48.18 275.73-47.77L275.73-47.77L275.73-47.77Q277.45-47.37 278.86-46.76L278.86-46.76L277.14-38.99L277.14-38.99Q275.93-39.59 274.47-40.00L274.47-40.00L274.47-40.00Q273.00-40.40 270.98-40.40L270.98-40.40L270.98-40.40Q268.05-40.40 265.58-39.39L265.58-39.39L265.58-39.39Q263.11-38.38 261.24-36.36L261.24-36.36L261.24-36.36Q259.37-34.34 258.31-31.36L258.31-31.36L258.31-31.36Q257.25-28.38 257.25-24.54L257.25-24.54L257.25 0ZM295.22-34.34L295.22 0L286.33 0L286.33-71.71L295.22-71.71L295.22-41.41L295.22-41.41Q298.56-44.34 302.60-46.26L302.60-46.26L302.60-46.26Q306.64-48.18 311.48-48.18L311.48-48.18L311.48-48.18Q315.42-48.18 318.35-47.02L318.35-47.02L318.35-47.02Q321.28-45.85 323.15-43.78L323.15-43.78L323.15-43.78Q325.02-41.71 325.98-38.89L325.98-38.89L325.98-38.89Q326.94-36.06 326.94-32.72L326.94-32.72L326.94 0L318.05 0L318.05-30.50L318.05-30.50Q318.05-35.96 315.83-38.43L315.83-38.43L315.83-38.43Q313.61-40.91 309.06-40.91L309.06-40.91L309.06-40.91Q305.63-40.91 302.14-39.19L302.14-39.19L302.14-39.19Q298.66-37.47 295.22-34.34L295.22-34.34ZM344.71-36.76L341.28-43.23L341.28-43.23Q343.70-44.44 345.82-45.40L345.82-45.40L345.82-45.40Q347.94-46.36 350.07-46.97L350.07-46.97L350.07-46.97Q352.19-47.57 354.41-47.87L354.41-47.87L354.41-47.87Q356.63-48.18 359.26-48.18L359.26-48.18L359.26-48.18Q363.20-48.18 366.48-47.32L366.48-47.32L366.48-47.32Q369.76-46.46 372.13-44.44L372.13-44.44L372.13-44.44Q374.51-42.42 375.82-39.14L375.82-39.14L375.82-39.14Q377.13-35.86 377.13-30.91L377.13-30.91L377.13 0L369.76 0L368.65-5.25L368.45-5.25L368.45-5.25Q365.32-1.92 361.58-0.51L361.58-0.51L361.58-0.51Q357.84 0.91 353.30 0.91L353.30 0.91L353.30 0.91Q349.86 0.91 346.99-0.05L346.99-0.05L346.99-0.05Q344.11-1.01 341.99-2.78L341.99-2.78L341.99-2.78Q339.87-4.54 338.70-7.07L338.70-7.07L338.70-7.07Q337.54-9.60 337.54-12.73L337.54-12.73L337.54-12.73Q337.54-20.20 343.45-24.09L343.45-24.09L343.45-24.09Q349.36-27.98 359.06-27.98L359.06-27.98L368.14-27.98L368.14-32.02L368.14-32.02Q368.14-37.17 365.52-39.04L365.52-39.04L365.52-39.04Q362.89-40.91 358.45-40.91L358.45-40.91L358.45-40.91Q355.82-40.91 352.44-40.05L352.44-40.05L352.44-40.05Q349.06-39.19 344.71-36.76L344.71-36.76ZM368.25-12.22L368.25-21.92L360.77-21.71L360.77-21.71Q353.20-21.51 350.02-19.04L350.02-19.04L350.02-19.04Q346.83-16.56 346.83-13.03L346.83-13.03L346.83-13.03Q346.83-10.91 347.54-9.44L347.54-9.44L347.54-9.44Q348.25-7.98 349.41-7.17L349.41-7.17L349.41-7.17Q350.57-6.36 352.14-6.01L352.14-6.01L352.14-6.01Q353.70-5.66 355.42-5.66L355.42-5.66L355.42-5.66Q358.75-5.66 362.19-7.22L362.19-7.22L362.19-7.22Q365.62-8.79 368.25-12.22L368.25-12.22ZM421.98-12.63L421.98-47.47L430.87-47.47L430.87 0L423.90 0L422.69-5.96L422.28-5.96L422.28-5.96Q419.66-3.03 415.77-1.06L415.77-1.06L415.77-1.06Q411.88 0.91 406.73 0.91L406.73 0.91L406.73 0.91Q399.35 0.91 394.76-3.28L394.76-3.28L394.76-3.28Q390.16-7.47 390.16-15.96L390.16-15.96L390.16-47.47L399.05-47.47L399.05-17.07L399.05-17.07Q399.05-14.04 399.81-11.92L399.81-11.92L399.81-11.92Q400.57-9.80 401.83-8.53L401.83-8.53L401.83-8.53Q403.09-7.27 404.81-6.72L404.81-6.72L404.81-6.72Q406.53-6.16 408.55-6.16L408.55-6.16L408.55-6.16Q412.59-6.16 415.82-7.88L415.82-7.88L415.82-7.88Q419.05-9.60 421.98-12.63L421.98-12.63ZM473.29-45.35L471.27-38.58L471.27-38.58Q467.93-40.20 465.21-40.80L465.21-40.80L465.21-40.80Q462.48-41.41 459.75-41.41L459.75-41.41L459.75-41.41Q454.90-41.41 452.58-39.64L452.58-39.64L452.58-39.64Q450.26-37.88 450.26-34.95L450.26-34.95L450.26-34.95Q450.26-32.83 451.87-31.26L451.87-31.26L451.87-31.26Q453.49-29.69 458.64-28.18L458.64-28.18L461.67-27.27L461.67-27.27Q468.44-25.25 471.92-22.07L471.92-22.07L471.92-22.07Q475.41-18.89 475.41-13.43L475.41-13.43L475.41-13.43Q475.41-6.97 470.61-3.03L470.61-3.03L470.61-3.03Q465.81 0.91 457.23 0.91L457.23 0.91L457.23 0.91Q452.68 0.91 448.49 0.10L448.49 0.10L448.49 0.10Q444.30-0.71 441.27-2.12L441.27-2.12L443.39-9.09L443.39-9.09Q446.32-7.68 449.75-6.82L449.75-6.82L449.75-6.82Q453.19-5.96 456.72-5.96L456.72-5.96L456.72-5.96Q461.27-5.96 463.94-7.58L463.94-7.58L463.94-7.58Q466.62-9.19 466.62-12.93L466.62-12.93L466.62-12.93Q466.62-16.16 464.30-17.52L464.30-17.52L464.30-17.52Q461.97-18.89 457.63-20.20L457.63-20.20L454.50-21.21L454.50-21.21Q447.94-23.33 444.75-26.51L444.75-26.51L444.75-26.51Q441.57-29.69 441.57-34.74L441.57-34.74L441.57-34.74Q441.57-37.77 442.89-40.30L442.89-40.30L442.89-40.30Q444.20-42.82 446.47-44.54L446.47-44.54L446.47-44.54Q448.74-46.26 451.87-47.22L451.87-47.22L451.87-47.22Q455.01-48.18 458.74-48.18L458.74-48.18L458.74-48.18Q462.28-48.18 466.06-47.52L466.06-47.52L466.06-47.52Q469.85-46.86 473.29-45.35L473.29-45.35Z" fill="#85a2b6"></path></g></g><style>text {
  font-size: 64px;
  font-family: Arial Black;
  dominant-baseline: central;
  text-anchor: middle;
}</style></svg>