<?xml version="1.0" encoding="UTF-8"?>
<!DOCTYPE svg PUBLIC "-//W3C//DTD SVG 1.1//EN" "http://www.w3.org/Graphics/SVG/1.1/DTD/svg11.dtd">
<svg xmlns="http://www.w3.org/2000/svg" version="1.1" width="500px" height="500px" style="shape-rendering:geometricPrecision; text-rendering:geometricPrecision; image-rendering:optimizeQuality; fill-rule:evenodd; clip-rule:evenodd" xmlns:xlink="http://www.w3.org/1999/xlink">
<g><path style="opacity:0.988" fill="#00adef" d="M 141.5,167.5 C 141.158,166.662 140.492,166.328 139.5,166.5C 138.5,244.763 138.167,323.763 138.5,403.5C 119.833,403.5 101.167,403.5 82.5,403.5C 82.1667,287.831 82.5,172.165 83.5,56.5C 154.33,97.0807 224.997,137.914 295.5,179C 297.025,180.009 298.692,180.509 300.5,180.5C 300.5,206.167 300.5,231.833 300.5,257.5C 297.984,257.245 295.65,256.411 293.5,255C 242.969,225.569 192.302,196.402 141.5,167.5 Z"/></g>
<g><path style="opacity:0.986" fill="#2542c6" d="M 349.5,101.5 C 369.167,101.5 388.833,101.5 408.5,101.5C 408.667,217.5 408.5,333.5 408,449.5C 407.586,449.957 407.086,450.291 406.5,450.5C 334.997,408.914 263.33,367.581 191.5,326.5C 190.333,300.506 190.167,274.506 191,248.5C 243.418,278.96 295.918,309.293 348.5,339.5C 349.5,260.169 349.833,180.836 349.5,101.5 Z"/></g>
<g><path style="opacity:1" fill="#00b4f9" d="M 139.5,166.5 C 139.5,245.833 139.5,325.167 139.5,404.5C 120.5,404.5 101.5,404.5 82.5,404.5C 82.5,404.167 82.5,403.833 82.5,403.5C 101.167,403.5 119.833,403.5 138.5,403.5C 138.167,323.763 138.5,244.763 139.5,166.5 Z"/></g>
<g><path style="opacity:0.186" fill="#00afef" d="M 139.5,166.5 C 140.492,166.328 141.158,166.662 141.5,167.5C 141.5,246.833 141.5,326.167 141.5,405.5C 121.66,405.83 101.993,405.497 82.5,404.5C 101.5,404.5 120.5,404.5 139.5,404.5C 139.5,325.167 139.5,245.833 139.5,166.5 Z"/></g>
</svg>
