<svg xmlns="http://www.w3.org/2000/svg" width="500" height="500" viewBox="0 0 500 500" version="1.1"><path d="M 249.648 45.250 C 249.301 48.138, 249.013 52.327, 249.009 54.560 C 249.001 58.224, 247.344 63.316, 242.613 74.218 C 241.726 76.263, 241.063 79.863, 241.141 82.218 L 241.282 86.500 241.983 81.500 C 242.369 78.750, 244.516 72.225, 246.756 67 L 250.828 57.500 254.003 64.500 C 255.750 68.350, 257.870 73.206, 258.715 75.291 C 259.559 77.377, 260.459 78.875, 260.714 78.620 C 260.968 78.365, 259.277 73.959, 256.955 68.828 C 253.765 61.778, 252.706 58.157, 252.617 54 L 252.500 48.500 258.500 48.384 C 261.800 48.320, 268.461 47.914, 273.302 47.482 C 282.020 46.704, 282.101 46.672, 281.802 44.098 L 281.500 41.500 271.852 41.819 C 265.746 42.021, 261.961 41.745, 261.543 41.069 C 261.179 40.481, 258.496 40, 255.580 40 L 250.279 40 249.648 45.250 M 251 45.019 C 251 47.794, 251.222 47.989, 253.750 47.426 C 259.211 46.211, 259.792 45.904, 260.298 43.967 C 260.758 42.208, 260.293 42, 255.906 42 C 251.115 42, 251 42.071, 251 45.019 M 265.250 43.732 C 261.953 44.029, 261 44.522, 261 45.928 C 261 47.541, 261.508 47.647, 265.601 46.882 C 271.880 45.709, 278 44.021, 278 43.461 C 278 42.974, 272.337 43.094, 265.250 43.732 M 200.566 70.315 C 200.324 71.517, 199.865 75.121, 199.546 78.324 C 199.226 81.527, 198.073 85.897, 196.983 88.034 C 195.378 91.179, 195 93.925, 195 102.425 C 195 111.906, 194.805 113.034, 193 114 C 190.407 115.388, 190.407 119.585, 193 123.500 C 194.420 125.645, 194.989 126.001, 194.993 124.750 C 194.997 123.787, 194.550 123, 194 123 C 193.450 123, 193 121.200, 193 119 C 193 115.156, 194.286 113.644, 195.338 116.250 C 195.615 116.938, 195.876 112.100, 195.918 105.500 C 195.986 94.852, 196.293 92.796, 198.647 87.250 C 200.106 83.813, 201.570 81.008, 201.900 81.017 C 202.230 81.026, 203.561 83.485, 204.857 86.480 C 206.956 91.328, 207.198 93.301, 207.062 104.463 C 206.964 112.609, 207.276 117, 207.955 117 C 208.530 117, 209 116.550, 209 116 C 209 115.450, 209.423 115, 209.940 115 C 210.456 115, 211.056 116.688, 211.272 118.750 L 211.664 122.500 211.832 118.491 C 211.961 115.418, 211.521 114.182, 209.952 113.202 C 208.092 112.040, 207.919 111.017, 208.073 102.092 C 208.218 93.670, 207.879 91.348, 205.709 85.881 C 204.316 82.371, 203.024 78.375, 202.838 77 C 202.508 74.557, 202.683 74.485, 210.500 73.862 C 218.927 73.191, 222 72.389, 222 70.862 C 222 69.506, 220.482 69.220, 210.253 68.648 C 201.349 68.149, 200.989 68.211, 200.566 70.315 M 297.582 68.752 C 297.262 69.072, 297 71.504, 297 74.156 C 297 77.029, 295.939 81.629, 294.376 85.533 C 292.933 89.137, 291.964 92.297, 292.221 92.555 C 292.479 92.812, 293.764 90.318, 295.078 87.012 C 296.391 83.705, 297.755 81, 298.110 81 C 299.249 81, 303.353 91.355, 304.054 96 L 304.733 100.500 304.839 96.500 C 304.904 94.087, 303.766 89.734, 301.973 85.529 C 300.338 81.695, 299 77.566, 299 76.354 C 299 74.309, 299.452 74.155, 305.250 74.221 C 311.767 74.295, 320.140 71.677, 318.427 70.102 C 317.350 69.111, 298.447 67.887, 297.582 68.752 M 203.250 69.727 C 202.563 69.969, 202 70.772, 202 71.513 C 202 72.506, 203.375 72.784, 207.250 72.573 C 210.137 72.416, 213.764 72.223, 215.309 72.144 C 216.903 72.062, 217.850 71.567, 217.499 70.998 C 217.154 70.440, 215.242 70.254, 213.190 70.577 C 211.160 70.897, 208.375 70.738, 207 70.223 C 205.625 69.708, 203.938 69.485, 203.250 69.727 M 298 70.862 C 298 72.640, 298.574 72.828, 303.250 72.573 C 306.137 72.416, 309.813 72.223, 311.417 72.144 C 316.300 71.903, 313.184 70.503, 307.666 70.458 C 304.825 70.435, 301.488 70.067, 300.250 69.641 C 298.409 69.006, 298 69.228, 298 70.862 M 259.667 80.667 C 258.743 81.591, 258.823 109.001, 259.750 108.997 C 260.163 108.995, 260.500 102.470, 260.500 94.496 C 260.500 86.523, 260.462 79.999, 260.417 79.999 C 260.371 80, 260.033 80.300, 259.667 80.667 M 292.214 102.595 C 292.034 110.254, 291.684 111.976, 290 113.500 C 288.545 114.817, 288.048 116.426, 288.175 119.405 L 288.349 123.500 288.732 119.250 C 289.102 115.147, 290.358 113.668, 291.280 116.250 C 292.471 119.584, 293.038 115.192, 292.748 104.883 C 292.433 93.711, 292.424 93.669, 292.214 102.595 M 225.667 108.667 C 225.300 109.033, 225 113.726, 225 119.094 C 225 128.448, 224.890 128.941, 222.365 130.927 C 219.199 133.418, 218.201 133.492, 215.898 131.408 C 214.267 129.932, 214.179 129.969, 214.686 131.908 C 215.123 133.578, 216.017 134, 219.117 134 C 221.937 134, 223 133.581, 223 132.469 C 223 131.626, 223.675 130.678, 224.500 130.362 C 225.700 129.901, 226 127.709, 226 119.393 L 226 109 229.500 109 C 231.944 109, 233 109.452, 233 110.500 C 233 111.548, 234.056 112, 236.500 112 C 238.425 112, 240 111.612, 240 111.139 C 240 110.665, 238.816 110.504, 237.369 110.780 C 235.581 111.122, 234.444 110.757, 233.819 109.642 C 232.905 108.007, 227.029 107.304, 225.667 108.667 M 267.049 109.441 C 266.392 110.233, 264.649 111.066, 263.177 111.291 C 261.112 111.607, 261.357 111.735, 264.250 111.850 C 266.913 111.957, 268 111.583, 268 110.563 C 268 109.692, 269.279 108.968, 271.250 108.723 L 274.500 108.320 271.372 108.160 C 269.652 108.072, 267.707 108.648, 267.049 109.441 M 274.272 114 C 274.272 116.475, 274.467 117.487, 274.706 116.250 C 274.944 115.013, 274.944 112.987, 274.706 111.750 C 274.467 110.513, 274.272 111.525, 274.272 114 M 304.079 114.715 C 304.122 116.247, 304.385 116.938, 304.662 116.250 C 305.725 113.616, 307.005 115.179, 307.118 119.250 C 307.226 123.130, 307.296 123.239, 307.918 120.500 C 308.816 116.547, 308.172 114.162, 305.875 112.933 C 304.245 112.061, 304.010 112.293, 304.079 114.715 M 208 126.500 C 208 129.685, 208.248 129.988, 210.750 129.864 C 213.255 129.740, 213.290 129.688, 211.149 129.281 C 209.189 128.909, 208.869 128.348, 209.225 125.917 C 209.461 124.313, 209.282 123, 208.827 123 C 208.372 123, 208 124.575, 208 126.500 M 290.775 125.917 C 291.131 128.348, 290.811 128.909, 288.851 129.281 C 286.710 129.688, 286.745 129.740, 289.250 129.864 C 291.752 129.988, 292 129.685, 292 126.500 C 292 124.575, 291.628 123, 291.173 123 C 290.718 123, 290.539 124.313, 290.775 125.917 M 304 142.420 L 304 161.839 308.795 163.432 C 316.014 165.830, 318 167.563, 318 171.465 C 318 174.563, 318.501 175.092, 324.623 178.457 C 334.665 183.977, 346.352 193.237, 358.051 204.943 C 369.396 216.295, 375.146 224.256, 383.592 240.304 C 389.341 251.229, 391.060 253.048, 385.877 242.721 C 377.836 226.702, 368.605 213.211, 360.409 205.500 C 358.071 203.300, 353.985 199.449, 351.329 196.943 C 344.198 190.213, 334.452 182.866, 326.250 178.039 C 319.978 174.348, 319 173.392, 319 170.957 C 319 166.819, 314.725 163.296, 307.638 161.593 L 304.776 160.906 305.315 141.953 C 305.638 130.589, 305.483 123, 304.927 123 C 304.389 123, 304 131.157, 304 142.420 M 283.124 131.693 C 282.344 132.539, 280.721 132.989, 279.374 132.731 C 278.068 132.482, 277 132.665, 277 133.139 C 277 134.722, 284.026 134.097, 284.655 132.457 C 285.485 130.293, 284.753 129.928, 283.124 131.693 M 190.104 166.497 C 187.687 167.821, 184.537 169.992, 183.104 171.320 C 181.672 172.648, 178.250 175.006, 175.500 176.559 C 164.167 182.962, 155.149 189.812, 144.587 200.044 C 134.554 209.763, 121.033 226.366, 122.200 227.533 C 122.450 227.784, 124.862 224.728, 127.559 220.744 C 137.729 205.723, 160.814 185.148, 176.178 177.410 C 179.887 175.542, 183.356 173.204, 183.886 172.213 C 184.416 171.223, 187.134 169.343, 189.925 168.035 C 192.716 166.728, 195 165.285, 195 164.829 C 195 163.766, 195.234 163.686, 190.104 166.497 M 120.310 230.250 C 118.623 232.506, 108.828 252.161, 109.204 252.537 C 109.406 252.739, 112.401 247.526, 115.860 240.952 C 121.513 230.209, 122.982 226.677, 120.310 230.250 M 389.569 252.500 C 392.475 260.851, 397.014 275.604, 397.079 276.907 C 397.125 277.842, 397.358 278.009, 397.642 277.312 C 398.255 275.805, 392.700 257.118, 390.516 253.340 C 389.612 251.778, 389.186 251.400, 389.569 252.500 M 106.625 257.979 C 105.731 260.213, 105.021 262.594, 105.047 263.270 C 105.073 263.947, 105.962 262.277, 107.023 259.559 C 108.084 256.842, 108.794 254.460, 108.601 254.268 C 108.408 254.075, 107.519 255.745, 106.625 257.979 M 102.679 270.350 C 101.755 273.279, 101.052 276.986, 101.116 278.588 C 101.196 280.607, 101.370 280.887, 101.681 279.500 C 101.927 278.400, 102.783 274.845, 103.582 271.601 C 105.425 264.118, 104.881 263.364, 102.679 270.350 M 398.627 282.500 C 400.959 297.906, 400.739 296.922, 400.856 292.500 C 400.914 290.300, 400.300 286.250, 399.492 283.500 C 398.172 279.012, 398.084 278.910, 398.627 282.500 M 98.652 293.750 C 97.494 306.005, 97.972 319.953, 99.995 332.965 C 101.092 340.022, 102.452 346.855, 103.018 348.148 L 104.046 350.500 103.582 348 C 103.327 346.625, 102.307 341.225, 101.316 336 C 99.916 328.624, 99.546 322.084, 99.660 306.750 C 99.741 295.887, 99.690 287, 99.548 287 C 99.406 287, 99.002 290.038, 98.652 293.750 M 401.349 307 C 401.349 311.675, 401.522 313.587, 401.732 311.250 C 401.943 308.913, 401.943 305.087, 401.732 302.750 C 401.522 300.413, 401.349 302.325, 401.349 307 M 400.175 321.162 C 400.079 323.176, 399.331 328.320, 398.514 332.592 C 397.696 336.865, 397.196 340.529, 397.401 340.735 C 398.283 341.617, 401.084 325.695, 400.734 321.789 C 400.362 317.643, 400.344 317.622, 400.175 321.162 M 393.145 353.670 C 386.150 378.730, 369.793 404.962, 351.306 420.767 C 335.900 433.937, 329.439 438.505, 318.255 444.134 C 311.790 447.388, 307.517 449.782, 308.761 449.454 C 310.004 449.127, 315.404 446.702, 320.761 444.066 C 330.542 439.253, 347.263 426.673, 358.671 415.544 C 366.407 407.998, 379.493 388.991, 385.534 376.529 C 390.599 366.079, 397.584 345.253, 396.807 342.921 C 396.609 342.326, 394.961 347.163, 393.145 353.670 M 104.637 353.978 C 105.642 359.594, 111.461 372.470, 117.686 382.850 C 131.253 405.474, 135.860 410.738, 161.308 432.696 C 172.946 442.738, 205.494 457.240, 215.644 456.906 C 217.241 456.853, 215.635 456.236, 212 455.504 C 200.223 453.134, 177.343 442.932, 166.500 435.217 C 158.268 429.360, 142.632 415.441, 136.725 408.713 C 126.345 396.891, 111.819 372.179, 106.400 357.126 C 105.088 353.482, 104.294 352.065, 104.637 353.978 M 294.500 453.465 C 289 455.295, 284.880 456.839, 285.344 456.896 C 286.526 457.042, 306 450.939, 306 450.422 C 306 449.716, 304.877 450.013, 294.500 453.465 M 220.112 457.965 C 220.998 458.504, 227.523 459.668, 234.612 460.552 C 248.213 462.249, 266.984 461.940, 275.923 459.872 C 278.440 459.290, 281.049 458.719, 281.721 458.602 C 283.246 458.339, 284.662 457, 283.417 457 C 282.912 457, 278.973 457.675, 274.662 458.500 C 265.665 460.222, 249.292 460.446, 236.974 459.017 C 219.873 457.032, 218.428 456.942, 220.112 457.965" stroke="none" fill="#3c2917" fill-rule="evenodd"/></svg>